<svg width="32" height="33" viewBox="0 0 32 33" fill="none" xmlns="http://www.w3.org/2000/svg">
<mask id="mask0_1179_57041" style="mask-type:alpha" maskUnits="userSpaceOnUse" x="0" y="0" width="32" height="33">
<rect y="0.522461" width="32" height="32" fill="#D9D9D9"/>
</mask>
<g mask="url(#mask0_1179_57041)">
<path d="M8.66667 20.5225H23.3333V19.1891H8.66667V20.5225ZM8.66667 16.5225H23.3333V15.1891H8.66667V16.5225ZM8.66667 12.5225H23.3333V11.1891H8.66667V12.5225ZM28 29.2917L23.8974 25.1891H6.15383C5.54017 25.1891 5.02778 24.9836 4.61667 24.5725C4.20556 24.1614 4 23.649 4 23.0353V8.67629C4 8.06263 4.20556 7.55024 4.61667 7.13913C5.02778 6.72802 5.54017 6.52246 6.15383 6.52246H25.8462C26.4598 6.52246 26.9722 6.72802 27.3833 7.13913C27.7944 7.55024 28 8.06263 28 8.67629V29.2917ZM24.4667 23.8558L26.6667 26.0481V8.67629C26.6667 8.47118 26.5812 8.28315 26.4103 8.11219C26.2393 7.94126 26.0513 7.85579 25.8462 7.85579H6.15383C5.94872 7.85579 5.76069 7.94126 5.58973 8.11219C5.4188 8.28315 5.33333 8.47118 5.33333 8.67629V23.0353C5.33333 23.2404 5.4188 23.4284 5.58973 23.5994C5.76069 23.7703 5.94872 23.8558 6.15383 23.8558H24.4667Z" fill="white"/>
</g>
</svg>
