<svg width="24" height="25" viewBox="0 0 24 25" fill="none" xmlns="http://www.w3.org/2000/svg">
<mask id="mask0_1164_57284" style="mask-type:alpha" maskUnits="userSpaceOnUse" x="0" y="0" width="24" height="25">
<rect y="0.522461" width="24" height="24" fill="#D9D9D9"/>
</mask>
<g mask="url(#mask0_1164_57284)">
<path d="M8.33285 13.8301H12.9995V13.1634H8.33285V13.8301ZM8.33285 11.8301H15.6662V11.1634H8.33285V11.8301ZM8.33285 9.83007H15.6662V9.16341H8.33285V9.83007ZM5.99951 18.2147V7.90699C5.99951 7.60016 6.10229 7.34397 6.30785 7.13841C6.5134 6.93286 6.7696 6.83008 7.07643 6.83008H16.9226C17.2294 6.83008 17.4856 6.93286 17.6912 7.13841C17.8967 7.34397 17.9995 7.60016 17.9995 7.90699V15.0865C17.9995 15.3933 17.8967 15.6495 17.6912 15.8551C17.4856 16.0606 17.2294 16.1634 16.9226 16.1634H8.0508L5.99951 18.2147ZM7.76618 15.4967H16.9226C17.0252 15.4967 17.1192 15.454 17.2046 15.3685C17.2901 15.2831 17.3328 15.189 17.3328 15.0865V7.90699C17.3328 7.80444 17.2901 7.71042 17.2046 7.62494C17.1192 7.53948 17.0252 7.49674 16.9226 7.49674H7.07643C6.97387 7.49674 6.87986 7.53948 6.79438 7.62494C6.70891 7.71042 6.66618 7.80444 6.66618 7.90699V16.5929L7.76618 15.4967Z" fill="#B3B3B3"/>
</g>
</svg>
