<svg width="32" height="33" viewBox="0 0 32 33" fill="none" xmlns="http://www.w3.org/2000/svg">
<mask id="mask0_1180_57048" style="mask-type:alpha" maskUnits="userSpaceOnUse" x="0" y="0" width="32" height="33">
<rect y="0.5" width="32" height="32" fill="#D9D9D9"/>
</mask>
<g mask="url(#mask0_1180_57048)">
<path d="M16 31.167L12 27.167H6.66667C5.93333 27.167 5.30556 26.9059 4.78333 26.3837C4.26111 25.8614 4 25.2337 4 24.5003V5.83366C4 5.10033 4.26111 4.47255 4.78333 3.95033C5.30556 3.4281 5.93333 3.16699 6.66667 3.16699H25.3333C26.0667 3.16699 26.6944 3.4281 27.2167 3.95033C27.7389 4.47255 28 5.10033 28 5.83366V24.5003C28 25.2337 27.7389 25.8614 27.2167 26.3837C26.6944 26.9059 26.0667 27.167 25.3333 27.167H20L16 31.167ZM6.66667 24.5003H13.0667L16 27.4337L18.9333 24.5003H25.3333V5.83366H6.66667V24.5003ZM18.0667 17.2337L22.6667 15.167L18.0667 13.1003L16 8.50033L13.9333 13.1003L9.33333 15.167L13.9333 17.2337L16 21.8337L18.0667 17.2337Z" fill="white"/>
</g>
</svg>
