<svg width="24" height="25" viewBox="0 0 24 25" fill="none"
    xmlns="http://www.w3.org/2000/svg">
    <mask id="mask0_1164_57266" style="mask-type:alpha" maskUnits="userSpaceOnUse" x="0" y="0" width="24" height="25">
        <rect y="0.522461" width="24" height="24" fill="#D9D9D9"/>
    </mask>
    <g mask="url(#mask0_1164_57266)">
        <path d="M20.7655 11.4955V19.4647C20.7655 19.9699 20.5905 20.3974 20.2405 20.7474C19.8905 21.0974 19.4629 21.2724 18.9578 21.2724H5.07316C4.56804 21.2724 4.14048 21.0974 3.79048 20.7474C3.44048 20.3974 3.26548 19.9699 3.26548 19.4647V11.4763C2.86291 11.1455 2.56066 10.7163 2.35873 10.1888C2.15681 9.66122 2.15265 9.09167 2.34623 8.48014L3.35778 5.17629C3.49111 4.75579 3.7174 4.41669 4.03663 4.15899C4.35586 3.9013 4.73727 3.77246 5.18086 3.77246H18.8308C19.2744 3.77246 19.6533 3.89554 19.9674 4.14169C20.2815 4.38784 20.5103 4.7263 20.6539 5.15706L21.6847 8.48014C21.8783 9.09167 21.8741 9.65929 21.6722 10.183C21.4703 10.7067 21.168 11.1442 20.7655 11.4955ZM14.2155 10.7725C14.7616 10.7725 15.1722 10.6055 15.4472 10.2715C15.7222 9.93752 15.8347 9.57887 15.7847 9.19554L15.177 5.27241H12.7655V9.22244C12.7655 9.64295 12.9078 10.0064 13.1924 10.3128C13.477 10.6193 13.818 10.7725 14.2155 10.7725ZM9.71546 10.7725C10.1757 10.7725 10.5491 10.6193 10.8357 10.3128C11.1222 10.0064 11.2655 9.64295 11.2655 9.22244V5.27241H8.85391L8.2462 9.23399C8.19237 9.58912 8.30391 9.93431 8.58083 10.2696C8.85776 10.6048 9.23597 10.7725 9.71546 10.7725ZM5.26546 10.7725C5.63597 10.7725 5.95457 10.6433 6.22125 10.385C6.48792 10.1266 6.65266 9.80193 6.71548 9.41091L7.30395 5.27241H5.18086C5.07187 5.27241 4.98533 5.29645 4.92123 5.34454C4.85711 5.39262 4.80903 5.46475 4.77698 5.56091L3.81546 8.81474C3.68339 9.24424 3.74556 9.6779 4.00198 10.1157C4.2584 10.5535 4.67955 10.7725 5.26546 10.7725ZM18.7655 10.7725C19.3065 10.7725 19.7206 10.56 20.0078 10.135C20.295 9.70994 20.3642 9.26987 20.2155 8.81474L19.204 5.54166C19.1719 5.44551 19.1238 5.3766 19.0597 5.33491C18.9956 5.29325 18.9091 5.27241 18.8001 5.27241H16.727L17.3155 9.41091C17.3783 9.80193 17.543 10.1266 17.8097 10.385C18.0763 10.6433 18.3949 10.7725 18.7655 10.7725ZM5.07316 19.7725H18.9578C19.0475 19.7725 19.1212 19.7436 19.1789 19.6859C19.2366 19.6282 19.2655 19.5545 19.2655 19.4647V12.184C19.1565 12.2237 19.0655 12.2484 18.9924 12.258C18.9193 12.2676 18.8437 12.2724 18.7655 12.2724C18.3155 12.2724 17.9196 12.191 17.578 12.0282C17.2363 11.8654 16.9052 11.6045 16.5847 11.2455C16.3039 11.5583 15.9719 11.8077 15.5886 11.9936C15.2052 12.1795 14.768 12.2724 14.277 12.2724C13.8526 12.2724 13.4526 12.1843 13.077 12.008C12.7014 11.8317 12.3475 11.5775 12.0155 11.2455C11.7065 11.5775 11.3565 11.8317 10.9655 12.008C10.5744 12.1843 10.1783 12.2724 9.77701 12.2724C9.32572 12.2724 8.90265 12.1907 8.50778 12.0272C8.1129 11.8638 7.76545 11.6032 7.46545 11.2455C7.04494 11.666 6.65744 11.9423 6.30296 12.0743C5.94847 12.2064 5.60264 12.2724 5.26546 12.2724C5.18726 12.2724 5.10649 12.2676 5.02315 12.258C4.9398 12.2484 4.85391 12.2237 4.76546 12.184V19.4647C4.76546 19.5545 4.7943 19.6282 4.85198 19.6859C4.90968 19.7436 4.98341 19.7725 5.07316 19.7725Z" fill="#B3B3B3"/>
    </g>
</svg>
