<svg width="24" height="25" viewBox="0 0 24 25" fill="none" xmlns="http://www.w3.org/2000/svg">
<mask id="mask0_1164_57278" style="mask-type:alpha" maskUnits="userSpaceOnUse" x="0" y="0" width="24" height="25">
<rect y="0.522461" width="24" height="24" fill="#D9D9D9"/>
</mask>
<g mask="url(#mask0_1164_57278)">
<path d="M6.02308 17.8148C6.87308 17.184 7.79903 16.6859 8.80095 16.3205C9.80287 15.9552 10.8692 15.7725 12 15.7725C13.1307 15.7725 14.1971 15.9552 15.199 16.3205C16.2009 16.6859 17.1269 17.184 17.9769 17.8148C18.5987 17.1314 19.0913 16.3404 19.4548 15.4417C19.8182 14.543 20 13.5699 20 12.5224C20 10.3058 19.2208 8.41827 17.6625 6.85994C16.1041 5.3016 14.2166 4.52244 12 4.52244C9.78331 4.52244 7.89581 5.3016 6.33748 6.85994C4.77914 8.41827 3.99998 10.3058 3.99998 12.5224C3.99998 13.5699 4.18171 14.543 4.54518 15.4417C4.90864 16.3404 5.40128 17.1314 6.02308 17.8148ZM12.0003 13.2724C11.0873 13.2724 10.3173 12.9591 9.69038 12.3323C9.06346 11.7056 8.75 10.9357 8.75 10.0227C8.75 9.10972 9.06336 8.33975 9.69008 7.71284C10.3168 7.08592 11.0867 6.77246 11.9997 6.77246C12.9127 6.77246 13.6827 7.08582 14.3096 7.71254C14.9365 8.33927 15.25 9.10914 15.25 10.0221C15.25 10.9352 14.9366 11.7051 14.3099 12.332C13.6831 12.959 12.9133 13.2724 12.0003 13.2724ZM12 22.0224C10.6807 22.0224 9.44325 21.7743 8.2875 21.2782C7.13173 20.782 6.12628 20.1064 5.27115 19.2513C4.41603 18.3961 3.7404 17.3907 3.24425 16.2349C2.74808 15.0792 2.5 13.8417 2.5 12.5224C2.5 11.2032 2.74808 9.96571 3.24425 8.80996C3.7404 7.65419 4.41603 6.64874 5.27115 5.79361C6.12628 4.93849 7.13173 4.26286 8.2875 3.76671C9.44325 3.27054 10.6807 3.02246 12 3.02246C13.3192 3.02246 14.5567 3.27054 15.7125 3.76671C16.8682 4.26286 17.8737 4.93849 18.7288 5.79361C19.5839 6.64874 20.2596 7.65419 20.7557 8.80996C21.2519 9.96571 21.5 11.2032 21.5 12.5224C21.5 13.8417 21.2519 15.0792 20.7557 16.2349C20.2596 17.3907 19.5839 18.3961 18.7288 19.2513C17.8737 20.1064 16.8682 20.782 15.7125 21.2782C14.5567 21.7743 13.3192 22.0224 12 22.0224ZM12 20.5224C12.9025 20.5224 13.7727 20.3772 14.6105 20.0869C15.4484 19.7965 16.1923 19.3904 16.8423 18.8686C16.1923 18.366 15.458 17.9744 14.6394 17.6936C13.8208 17.4128 12.941 17.2724 12 17.2724C11.0589 17.2724 10.1775 17.4112 9.35573 17.6888C8.53393 17.9663 7.80123 18.3596 7.15765 18.8686C7.80765 19.3904 8.55157 19.7965 9.3894 20.0869C10.2272 20.3772 11.0974 20.5224 12 20.5224ZM12 11.7725C12.4974 11.7725 12.9134 11.6052 13.2481 11.2705C13.5827 10.9359 13.75 10.5199 13.75 10.0224C13.75 9.525 13.5827 9.10897 13.2481 8.77434C12.9134 8.43972 12.4974 8.27241 12 8.27241C11.5025 8.27241 11.0865 8.43972 10.7519 8.77434C10.4173 9.10897 10.25 9.525 10.25 10.0224C10.25 10.5199 10.4173 10.9359 10.7519 11.2705C11.0865 11.6052 11.5025 11.7725 12 11.7725Z" fill="#B3B3B3"/>
</g>
</svg>
