<svg width="24" height="25" viewBox="0 0 24 25" fill="none" xmlns="http://www.w3.org/2000/svg">
<g id="Icon">
<path id="Vector" d="M20.7825 3.73991C20.6813 3.63917 20.5534 3.56941 20.4139 3.53886C20.2744 3.5083 20.1291 3.5182 19.995 3.56741L3.495 9.56741C3.3527 9.62138 3.23019 9.71737 3.14374 9.84263C3.05729 9.96788 3.01099 10.1165 3.01099 10.2687C3.01099 10.4209 3.05729 10.5694 3.14374 10.6947C3.23019 10.8199 3.3527 10.9159 3.495 10.9699L9.9375 13.5424L14.6925 8.77241L15.75 9.82991L10.9725 14.6074L13.5525 21.0499C13.6081 21.1895 13.7043 21.3091 13.8286 21.3933C13.953 21.4776 14.0998 21.5226 14.25 21.5224C14.4016 21.5193 14.5486 21.4703 14.6718 21.382C14.795 21.2936 14.8885 21.17 14.94 21.0274L20.94 4.52741C20.9911 4.39472 21.0034 4.25023 20.9755 4.1108C20.9477 3.97137 20.8807 3.84274 20.7825 3.73991Z" fill="#2150DE"/>
</g>
</svg>
