<svg width="24" height="25" viewBox="0 0 24 25" fill="none" xmlns="http://www.w3.org/2000/svg">
<mask id="mask0_1164_57275" style="mask-type:alpha" maskUnits="userSpaceOnUse" x="0" y="0" width="24" height="25">
<rect y="0.522461" width="24" height="24" fill="#D9D9D9"/>
</mask>
<g mask="url(#mask0_1164_57275)">
<path d="M5.40387 21.5224C4.89875 21.5224 4.47119 21.3474 4.12119 20.9974C3.77119 20.6474 3.59619 20.2199 3.59619 19.7148V5.83016C3.59619 5.32503 3.77119 4.89746 4.12119 4.54746C4.47119 4.19746 4.89875 4.02246 5.40387 4.02246H12.1154V5.52244H5.40387C5.32693 5.52244 5.25642 5.55449 5.19232 5.61859C5.1282 5.6827 5.09614 5.75323 5.09614 5.83016V19.7148C5.09614 19.7917 5.1282 19.8622 5.19232 19.9263C5.25642 19.9904 5.32693 20.0225 5.40387 20.0225H12.1154V21.5224H5.40387ZM16.1346 17.0416L15.0962 15.957L17.5308 13.5224H9.11539V12.0225H17.5308L15.0962 9.58786L16.1346 8.50329L20.4038 12.7725L16.1346 17.0416Z" fill="#B3B3B3"/>
</g>
</svg>
